<svg width="193" height="193" viewBox="0 0 193 193" fill="none" xmlns="http://www.w3.org/2000/svg">
<path d="M96.25 0C70.8182 0.306827 46.5145 10.5459 28.5302 28.5302C10.5459 46.5145 0.306827 70.8182 0 96.25C0.306827 121.682 10.5459 145.985 28.5302 163.97C46.5145 181.954 70.8182 192.193 96.25 192.5C121.682 192.193 145.985 181.954 163.97 163.97C181.954 145.985 192.193 121.682 192.5 96.25C192.193 70.8182 181.954 46.5145 163.97 28.5302C145.985 10.5459 121.682 0.306827 96.25 0ZM151.25 103.125H103.125V151.25H89.375V103.125H41.25V89.375H89.375V41.25H103.125V89.375H151.25V103.125Z" fill="#FA2B92"/>
</svg>
